<svg id="Instagram" xmlns="http://www.w3.org/2000/svg" width="24.974" height="24.974" viewBox="0 0 24.974 24.974">
  <path id="Path_3" data-name="Path 3" d="M12.487,2.22a38.288,38.288,0,0,1,4.995.139,6.435,6.435,0,0,1,2.359.416A4.873,4.873,0,0,1,22.2,5.134a6.435,6.435,0,0,1,.416,2.359c0,1.249.139,1.665.139,4.995a38.287,38.287,0,0,1-.139,4.995A6.435,6.435,0,0,1,22.2,19.84,4.873,4.873,0,0,1,19.84,22.2a6.435,6.435,0,0,1-2.359.416c-1.249,0-1.665.139-4.995.139a38.287,38.287,0,0,1-4.995-.139A6.435,6.435,0,0,1,5.134,22.2,4.873,4.873,0,0,1,2.775,19.84a6.435,6.435,0,0,1-.416-2.359c0-1.249-.139-1.665-.139-4.995a38.288,38.288,0,0,1,.139-4.995,6.435,6.435,0,0,1,.416-2.359,4.983,4.983,0,0,1,.971-1.387,2.346,2.346,0,0,1,1.387-.971,6.435,6.435,0,0,1,2.359-.416,38.288,38.288,0,0,1,4.995-.139m0-2.22A41,41,0,0,0,7.353.139,8.566,8.566,0,0,0,4.3.694a5.431,5.431,0,0,0-2.22,1.387A5.431,5.431,0,0,0,.694,4.3,6.322,6.322,0,0,0,.139,7.353,41,41,0,0,0,0,12.487a41,41,0,0,0,.139,5.134,8.566,8.566,0,0,0,.555,3.052,5.431,5.431,0,0,0,1.387,2.22A5.431,5.431,0,0,0,4.3,24.28a8.566,8.566,0,0,0,3.052.555,41,41,0,0,0,5.134.139,41,41,0,0,0,5.134-.139,8.566,8.566,0,0,0,3.052-.555,5.821,5.821,0,0,0,3.607-3.607,8.566,8.566,0,0,0,.555-3.052c0-1.387.139-1.8.139-5.134a41,41,0,0,0-.139-5.134A8.566,8.566,0,0,0,24.28,4.3a5.431,5.431,0,0,0-1.387-2.22A5.431,5.431,0,0,0,20.673.694,8.566,8.566,0,0,0,17.621.139,41,41,0,0,0,12.487,0m0,6.1A6.279,6.279,0,0,0,6.1,12.487,6.382,6.382,0,1,0,12.487,6.1m0,10.545a4.088,4.088,0,0,1-4.162-4.162,4.088,4.088,0,0,1,4.162-4.162,4.088,4.088,0,0,1,4.162,4.162,4.088,4.088,0,0,1-4.162,4.162M19.147,4.3a1.526,1.526,0,1,0,1.526,1.526A1.54,1.54,0,0,0,19.147,4.3" fill-rule="evenodd"/>
</svg>
